<?xml version="1.0" encoding="UTF-8"?>
<svg width="48px" height="30px" viewBox="0 0 48 30" version="1.1" xmlns="http://www.w3.org/2000/svg" xmlns:xlink="http://www.w3.org/1999/xlink">
    <!-- Generator: Sketch 52.1 (67048) - http://www.bohemiancoding.com/sketch -->
    <title>round-format_quote-24px</title>
    <desc>Created with Sketch.</desc>
    <g id="Symbols" stroke="none" stroke-width="1" fill="none" fill-rule="evenodd">
        <g id="Feedback" transform="translate(-12.000000, -21.000000)">
            <g id="round-format_quote-24px">
                <polygon id="Path" points="0 0 72 0 72 72 0 72"></polygon>
                <path d="M21.51,51 C23.04,51 24.45,50.13 25.11,48.78 L29.37,40.26 C29.79,39.42 30,38.52 30,37.59 L30,24 C30,22.35 28.65,21 27,21 L15,21 C13.35,21 12,22.35 12,24 L12,36 C12,37.65 13.35,39 15,39 L21,39 L17.91,45.18 C16.56,47.85 18.51,51 21.51,51 Z M51.51,51 C53.04,51 54.45,50.13 55.11,48.78 L59.37,40.26 C59.79,39.42 60,38.52 60,37.59 L60,24 C60,22.35 58.65,21 57,21 L45,21 C43.35,21 42,22.35 42,24 L42,36 C42,37.65 43.35,39 45,39 L51,39 L47.91,45.18 C46.56,47.85 48.51,51 51.51,51 Z" id="Shape" fill="#0DB8F7" fill-rule="nonzero"></path>
            </g>
        </g>
    </g>
</svg>